<svg width="64" height="64" viewBox="0 0 64 64" fill="none" xmlns="http://www.w3.org/2000/svg">
<path d="M32.0002 50.9092C30.3937 50.9092 29.0911 52.2118 29.0911 53.8183V59.6365C29.0911 61.243 30.3937 62.5456 32.0002 62.5456C33.6067 62.5456 34.9093 61.243 34.9093 59.6365V53.8183C34.9093 52.2118 33.6067 50.9092 32.0002 50.9092Z" fill="black" fill-opacity="0.1"/>
<path d="M17.6007 43.7398L9.37258 51.9682C8.23648 53.1043 8.23648 54.946 9.37258 56.0821C9.94048 56.65 10.6851 56.9341 11.4297 56.9341C12.1743 56.9341 12.9189 56.65 13.4865 56.0821L21.7146 47.8537C22.8507 46.7176 22.8507 44.8759 21.7146 43.7398C20.5788 42.6037 18.7368 42.6037 17.6007 43.7398Z" fill="black" fill-opacity="0.2"/>
<path d="M14.5455 30.5454H2.9091C1.3026 30.5454 0 31.848 0 33.4545C0 35.061 1.3026 36.3636 2.9091 36.3636H14.5455C16.152 36.3636 17.4546 35.061 17.4546 33.4545C17.4546 31.848 16.152 30.5454 14.5455 30.5454Z" fill="black" fill-opacity="0.3"/>
<path d="M13.4869 10.827C12.3511 9.69092 10.5091 9.69092 9.37295 10.827C8.23685 11.9631 8.23685 13.8048 9.37295 14.9409L17.6011 23.1693C18.169 23.7375 18.9136 24.0216 19.6582 24.0216C20.4025 24.0216 21.1474 23.7375 21.715 23.1693C22.8511 22.0335 22.8511 20.1915 21.715 19.0554L13.4869 10.827Z" fill="black" fill-opacity="0.4"/>
<path d="M32.0002 1.45441C30.3937 1.45441 29.0911 2.75701 29.0911 4.36351V15.9999C29.0911 17.6064 30.3937 18.909 32.0002 18.909C33.6067 18.909 34.9093 17.6064 34.9093 15.9999V4.36351C34.9093 2.75701 33.6067 1.45441 32.0002 1.45441Z" fill="black" fill-opacity="0.6"/>
<path d="M50.5135 10.827L42.2851 19.0554C41.149 20.1912 41.149 22.0332 42.2851 23.1693C42.853 23.7375 43.5976 24.0216 44.3419 24.0216C45.0865 24.0216 45.8311 23.7378 46.399 23.1693L54.6274 14.9409C55.7635 13.8051 55.7635 11.9631 54.6274 10.827C53.4916 9.69092 51.6496 9.69092 50.5135 10.827Z" fill="black" fill-opacity="0.8"/>
<path d="M61.0909 30.5454H49.4545C47.848 30.5454 46.5454 31.848 46.5454 33.4545C46.5454 35.061 47.848 36.3636 49.4545 36.3636H61.0909C62.6974 36.3636 64 35.061 64 33.4545C64 31.848 62.6977 30.5454 61.0909 30.5454Z" fill="black"/>
</svg>
